<svg width="600" height="100" viewBox="0 0 600 100" xmlns="http://www.w3.org/2000/svg"><title>A4</title><g fill="#444" fill-rule="evenodd"><path d="M585.79 28.43c.032.803.05 1.61.05 2.421C585.84 55.538 567.27 84 533.31 84c-10.428 0-20.134-3.09-28.309-8.39 1.446.17 2.915.26 4.407.26 8.651 0 16.612-2.987 22.932-7.998-8.083-.15-14.9-5.553-17.247-12.976 1.124.222 2.28.34 3.47.34 1.684 0 3.316-.231 4.864-.656-8.446-1.717-14.807-9.267-14.807-18.317v-.236a18.282 18.282 0 0 0 8.362 2.336 18.734 18.734 0 0 1-8.213-15.548c0-3.425.91-6.634 2.5-9.394 9.108 11.3 22.712 18.742 38.056 19.52a19.113 19.113 0 0 1-.476-4.26c0-10.315 8.264-18.681 18.464-18.681 5.312 0 10.11 2.27 13.478 5.903a36.72 36.72 0 0 0 11.724-4.535 18.682 18.682 0 0 1-8.12 10.334A36.455 36.455 0 0 0 595 18.762a37.791 37.791 0 0 1-9.21 9.668M467.484 72.106c-1.358.658-3.955 1.227-5.895 1.278-5.849.159-6.985-4.16-7.035-7.294V43.054h14.675V31.852h-14.621V13h-10.704c-.176 0-.486.159-.528.554-.623 5.771-3.294 15.897-14.376 19.94v9.56h7.395v24.179c0 8.277 6.029 20.037 21.95 19.762 5.371-.093 11.335-2.37 12.655-4.334l-3.516-10.555M326.037 45.383s.827 10.101.827 13.366c0 1.47-.638 9.125-.638 9.125 0 .477-.351 1.062-.884 1.062-.53 0-.922-.604-.922-1.08 0 0-.623-6.999-.623-9.096 0-3.347.823-13.396.823-13.396 0-.477.166-.814.695-.814.53 0 .635.337.722.833zm-4.957 4.296c-.42 0-.623.473-.623.646 0 0-.594 6.213-.594 8.435 0 2.225.503 9.103.503 9.103 0 .477.317 1.073.737 1.073s.706-.604.706-1.08c0 0 .552-6.286.518-9.107-.038-2.822-.53-8.473-.53-8.473-.03-.192-.298-.597-.717-.597zm60.235-2.529c-1.466 0-2.86.304-4.133.84-.85-9.74-8.928-16.99-18.781-16.99-2.41 0-4.76.48-6.835 1.295-.808.315-1.186.637-1.194 1.268l.004 33.921c.007.66.54 1.212 1.179 1.276.026.004 29.568.019 29.76.019 5.902 0 10.685-4.84 10.685-10.815 0-5.973-4.783-10.814-10.685-10.814zm-68.139 2.131c-.253 0-.495.087-.548.593l-.676 8.95.536 7.857c.076.53.291.976.71.976.424 0 .552-.447.685-.957l.547-7.888-.642-8.934c-.068-.495-.28-.597-.612-.597zm-3.952 4.02c-.42 0-.491.213-.559.66L308 58.824l.62 5.392c.068.476.207.739.63.739.42 0 .624-.44.67-.735l.558-5.408-.638-4.911c-.068-.38-.193-.6-.616-.6zm7.904-5.093c-.317 0-.623.154-.623.63l-.601 9.986.514 9.212c.087.525.313.964.733.964.423 0 .578-.394.702-.972l.53-9.216-.514-10c-.068-.491-.318-.604-.74-.604zm30.407-14.296c-.507 0-.828.473-.828.95 0 0-.8 5.496-.8 23.898 0 4.015.653 8.964.653 8.964 0 .473.495 1.212 1.005 1.212.506 0 .967-.716.967-1.193 0 0 .665-4.893.665-8.994 0-19.441-.805-23.91-.805-23.91-.083-.5-.351-.927-.857-.927zm-17.777 5.883c-.528 0-.755.387-.755.864 0 0-.76 13.797-.76 18.1 0 4.016.707 9.183.707 9.183 0 .473.31.994.839.994.529 0 .8-.499.8-.975 0 0 .775-5.111.775-9.212 0-4.822-.82-18.117-.82-18.117-.087-.495-.257-.837-.786-.837zm13.334-2.45c-.507 0-.832.522-.832.998 0 0-.797 6.083-.797 20.417 0 4.015.65 8.964.65 8.964 0 .473.499 1.212 1.005 1.212.506 0 .967-.716.967-1.193 0 0 .669-4.893.669-8.994 0-16-.805-20.432-.805-20.432-.083-.495-.351-.972-.857-.972zm-4.447 2.522c-.507 0-.828.521-.828.998 0 0-.748 6.499-.748 17.895 0 4.015.6 8.964.6 8.964 0 .473.496 1.212 1.002 1.212.51 0 .967-.716.967-1.193 0 0 .67-4.893.67-8.994 0-12.42-.806-17.907-.806-17.907-.083-.495-.351-.975-.857-.975zm-4.447-2.034c-.506 0-.722.387-.722.863 0 0-.854 14.563-.854 20.064 0 4.015.677 9.07.677 9.07.102.562.419 1.106.925 1.106.507 0 .828-.611.907-1.11 0 0 .676-4.976.676-9.077 0-6.14-.861-20.08-.861-20.08-.083-.495-.242-.836-.748-.836zm-53.426 6.011h-6.963c.505 1.966.807 4.028.807 6.156 0 13.596-11.02 24.616-24.616 24.616S225.384 63.596 225.384 50c0-2.128.302-4.19.807-6.156h-6.963v33.848a3.079 3.079 0 0 0 3.08 3.076h55.384a3.079 3.079 0 0 0 3.08-3.076V43.844zm0-21.54a3.079 3.079 0 0 0-3.08-3.076h-9.228a3.075 3.075 0 0 0-3.076 3.076v9.232a3.073 3.073 0 0 0 3.076 3.076h9.228a3.076 3.076 0 0 0 3.08-3.076v-9.232zM250 34.612c-8.5 0-15.384 6.889-15.384 15.388 0 8.495 6.885 15.384 15.384 15.384 8.495 0 15.388-6.889 15.388-15.384 0-8.5-6.893-15.388-15.388-15.388zM280.772 90h-61.544c-5.096 0-9.228-4.132-9.228-9.232v-61.54A9.228 9.228 0 0 1 219.228 10h61.544A9.228 9.228 0 0 1 290 19.228v61.54c0 5.1-4.132 9.232-9.228 9.232zM150.09.374c-27.56 0-49.907 22.72-49.907 50.746 0 22.421 14.3 41.443 34.13 48.153 2.494.47 3.41-1.1 3.41-2.441 0-1.21-.047-5.208-.068-9.448-13.885 3.07-16.815-5.987-16.815-5.987-2.27-5.866-5.54-7.426-5.54-7.426-4.529-3.15.34-3.084.34-3.084 5.012.358 7.65 5.229 7.65 5.229 4.452 7.758 11.676 5.515 14.524 4.218.448-3.28 1.741-5.518 3.169-6.785-11.085-1.283-22.738-5.635-22.738-25.08 0-5.54 1.95-10.066 5.142-13.62-.518-1.278-2.227-6.44.483-13.43 0 0 4.191-1.364 13.728 5.202 3.981-1.124 8.25-1.688 12.492-1.708 4.241.02 8.514.584 12.503 1.708 9.525-6.566 13.71-5.202 13.71-5.202 2.717 6.99 1.008 12.152.49 13.43 3.2 3.554 5.136 8.08 5.136 13.62 0 19.492-11.675 23.783-22.789 25.04 1.79 1.574 3.386 4.662 3.386 9.397 0 6.79-.058 12.255-.058 13.926 0 1.35.898 2.933 3.428 2.434 19.819-6.717 34.1-25.732 34.1-48.146 0-28.027-22.344-50.746-49.906-50.746"/><path d="M119.085 73.234c-.11.253-.5.328-.855.155-.362-.165-.566-.51-.448-.762.107-.26.498-.332.86-.158.362.165.569.513.443.765m2.022 2.293c-.238.224-.704.12-1.02-.235-.326-.353-.387-.826-.146-1.054.246-.225.697-.12 1.024.234.327.358.39.828.142 1.055m1.967 2.923c-.305.216-.805.013-1.114-.438-.306-.451-.306-.993.006-1.21.31-.216.803-.021 1.116.427.305.458.305 1-.008 1.22m2.696 2.824c-.273.307-.856.224-1.282-.194-.437-.41-.558-.99-.284-1.297.277-.307.863-.22 1.293.194.433.409.565.994.273 1.297m3.72 1.64c-.121.397-.683.578-1.248.409-.564-.174-.934-.64-.82-1.041.118-.4.681-.589 1.25-.408.564.173.935.635.817 1.04m4.085.304c.014.418-.466.765-1.06.773-.596.013-1.078-.325-1.085-.737 0-.423.469-.766 1.065-.777.594-.011 1.08.325 1.08.74m3.8-.657c.071.408-.34.828-.93.94-.58.107-1.116-.145-1.19-.55-.071-.419.348-.838.927-.946.59-.105 1.118.14 1.193.556M50 0C22.387 0 0 22.387 0 50c0 27.621 22.387 50 50 50 27.617 0 50-22.379 50-50 0-27.613-22.383-50-50-50zm31.725 23.036a41.438 41.438 0 0 1 9.816 24.192c-9.003-.478-19.782-.47-28.446.347-1.09-2.768-2.216-5.477-3.426-8.073 9.992-4.322 17.68-10 22.056-16.466zM50 8.338a41.48 41.48 0 0 1 26.583 9.59c-4.531 5.732-11.62 10.71-20.483 14.47C51.251 23.45 45.69 15.74 39.752 9.656c3.283-.834 6.704-1.32 10.247-1.32zm-18.853 4.539c6.022 5.98 11.671 13.626 16.613 22.542-9.41 2.864-20.193 4.514-31.688 4.514-2.173 0-4.313-.08-6.432-.201 2.986-11.738 10.942-21.474 21.507-26.855zM8.405 48.01c2.37.105 4.765.146 7.198.121 13.116-.163 25.348-2.202 35.833-5.57.98 2.061 1.918 4.172 2.814 6.337-1.432.33-2.7.695-3.722 1.122-14.355 6.013-25.65 15.733-31.776 27.479C12.286 70.155 8.333 60.553 8.333 50c0-.666.042-1.327.072-1.99zM50 91.667c-9.631 0-18.476-3.292-25.536-8.786 5.544-10.98 15.44-20.067 27.923-25.724 1.18-.54 2.739-.984 4.53-1.374a152.408 152.408 0 0 1 3.975 12.81 149.023 149.023 0 0 1 3.857 20.343A41.352 41.352 0 0 1 50 91.666zm22.517-6.638a150.214 150.214 0 0 0-3.882-20.544c-.888-3.384-1.906-6.667-2.986-9.879 8.17-.67 17.973-.565 25.75 0-1.416 12.777-8.59 23.786-18.882 30.423z"/></g></svg>